<svg width="42" height="42" viewBox="0 0 42 42" fill="none" xmlns="http://www.w3.org/2000/svg">
<g clip-path="url(#clip0)">
<path d="M11.369 0.499999L30.6313 0.499999C36.6238 0.499999 41.5 5.37617 41.5 11.369L41.5 30.631C41.5 36.6238 36.6238 41.5 30.6313 41.5L11.369 41.5C5.37618 41.5 0.499999 36.6238 0.499999 30.631L0.499999 11.369C0.499999 5.37618 5.37618 0.499999 11.369 0.499999ZM30.6313 40.0378C35.8184 40.0378 40.0378 35.8184 40.0378 30.631L40.0378 11.369C40.0378 6.18159 35.8184 1.96222 30.6313 1.96222L11.369 1.96222C6.18158 1.96222 1.96222 6.18158 1.96222 11.369L1.96222 30.631C1.96222 35.8184 6.18158 40.0378 11.369 40.0378L30.6313 40.0378Z" stroke="black" stroke-width="0.999998"/>
<path d="M17.7778 19.9078L16.6698 20.3902L17.7947 20.8316C18.5338 21.1217 19.0578 21.5169 19.4028 22.001C19.7296 22.4603 19.929 23.1852 19.929 24.2457V24.7456C19.929 26.4379 19.5166 27.5565 18.8023 28.2243L19.1438 28.5895L18.8023 28.2243C18.059 28.9192 17.0338 29.2915 15.6686 29.2915L10.6224 29.2915C10.3062 29.2915 10.094 29.2165 9.94696 29.1062L9.94647 29.1058C9.7836 28.9838 9.76572 28.8972 9.76572 28.8395L9.76572 13.3682C9.76572 13.2494 9.80327 13.1638 9.94189 13.0742L9.94234 13.0739C10.12 12.9588 10.3399 12.8925 10.6224 12.8925L15.2162 12.8925C16.749 12.8925 17.8053 13.2295 18.4751 13.816C19.1323 14.3914 19.5006 15.2809 19.5006 16.5816C19.5006 17.4951 19.3409 18.2068 19.0537 18.744C18.7711 19.2725 18.3519 19.6578 17.7778 19.9078ZM12.3361 14.606L11.8361 14.606V15.106L11.8361 19.1521L11.8361 19.6521L12.3361 19.6521L15.0021 19.6521C15.7228 19.6521 16.3472 19.4359 16.7914 18.9374C17.2201 18.4563 17.4062 17.8252 17.4062 17.1051C17.4062 16.3917 17.2068 15.768 16.756 15.2961L16.7558 15.2959C16.3 14.8191 15.6854 14.606 14.9781 14.606L12.3361 14.606ZM11.8361 27.0784L11.8361 27.5784L12.3361 27.5784L15.0258 27.5784C15.8885 27.5784 16.6226 27.3333 17.1309 26.7621C17.6293 26.202 17.8346 25.4123 17.8346 24.4838V24.1031C17.8346 23.159 17.6306 22.3579 17.1085 21.8251L17.1082 21.8248C16.5948 21.3017 15.871 21.08 15.0258 21.08L12.3361 21.08L11.8361 21.08L11.8361 21.58L11.8361 27.0784Z" stroke="black" stroke-width="0.999998"/>
<path d="M32.8751 23.8239L32.8752 23.8235C32.9645 23.5942 33.02 23.2724 33.02 22.8381C33.02 21.6891 32.6002 20.7533 31.748 19.9961C30.884 19.2289 29.8493 18.8427 28.6167 18.8427C27.2919 18.8427 26.1848 19.268 25.2662 20.1148L32.8751 23.8239ZM32.8751 23.8239C32.7917 24.0388 32.6828 24.1483 32.5664 24.2078C32.3532 24.3166 32.179 24.3734 32.0403 24.3946C31.869 24.4206 31.6271 24.436 31.3065 24.436L26.4746 24.436L25.9746 24.436M32.8751 23.8239L25.9746 24.436M25.3315 28.2776L25.3315 28.2776C26.2944 29.0836 27.5571 29.5059 29.164 29.5059C30.2953 29.5059 31.2029 29.2986 31.9119 28.9122L31.9121 28.9121C32.2868 28.7081 32.5344 28.5204 32.6829 28.3572C32.8286 28.1972 32.8534 28.0905 32.8534 28.0301C32.8534 27.8792 32.7952 27.6816 32.6141 27.4294L25.3315 28.2776ZM25.3315 28.2776C24.3798 27.4812 23.9039 26.4462 23.9039 25.1263L23.9039 23.1034C23.9039 21.9515 24.3462 20.963 25.2661 20.1148L25.3315 28.2776ZM25.9746 24.436V24.936M25.9746 24.436V24.936M25.9746 24.936V25.2929C25.9746 26.1181 26.2897 26.8131 26.9175 27.3325L25.9746 24.936ZM30.3464 20.87L30.347 20.8705C30.8686 21.2913 31.1399 21.8568 31.1399 22.5269C31.1399 22.8014 31.0862 23.1667 30.7954 23.3968L30.795 23.3972C30.5523 23.5888 30.2263 23.6271 29.9497 23.6271L26.4746 23.6271L25.9746 23.6271V23.1271V22.5045C25.9746 21.8305 26.253 21.2658 26.7878 20.853L30.3464 20.87ZM30.3464 20.87C29.8417 20.464 29.2307 20.2706 28.5453 20.2706C27.8867 20.2706 27.2936 20.4624 26.7879 20.8529L30.3464 20.87ZM32.187 27.1734C32.3342 27.1734 32.4699 27.2288 32.614 27.4293L26.9176 27.3326C27.5372 27.8457 28.3345 28.078 29.2592 28.078C29.9489 28.078 30.6217 27.905 31.2726 27.5707C31.5594 27.4235 31.7853 27.3185 31.9544 27.2515C32.0941 27.1961 32.1634 27.1799 32.1835 27.1753C32.1907 27.1736 32.1916 27.1734 32.187 27.1734Z" stroke="black" stroke-width="0.999998"/>
<path d="M24.652 15.0903L32.352 15.0903C32.7559 15.0903 33.0835 15.418 33.0835 15.8214C33.0835 16.2253 32.7559 16.5529 32.352 16.5529L24.652 16.5529C24.2482 16.5529 23.9206 16.2253 23.9206 15.8214C23.9206 15.418 24.2481 15.0903 24.652 15.0903Z" stroke="black" stroke-width="0.999998"/>
</g>
<defs>
<clipPath id="clip0">
<rect width="42" height="42" fill="white"/>
</clipPath>
</defs>
</svg>
