<svg width="31" height="28" viewBox="0 0 31 28" fill="none" xmlns="http://www.w3.org/2000/svg">
<g clip-path="url(#clip0)">
<path d="M30.5 6.77376V6.77546V21.2302C30.5 22.7961 29.0732 24.1542 27.2092 24.1542H3.79081C1.92682 24.1542 0.5 22.7961 0.5 21.2302V6.76966C0.5 5.20378 1.92682 3.8457 3.79081 3.8457H27.2156C29.079 3.8457 30.5053 5.20859 30.5 6.77376ZM29.7746 21.2302V20.7302H29.7682V6.77546C29.7682 5.4272 28.5716 4.41574 27.2092 4.41574H3.79081C2.42845 4.41574 1.23184 5.4272 1.23184 6.77546V21.2302C1.23184 22.5785 2.42845 23.59 3.79081 23.59H27.2156C28.578 23.59 29.7746 22.5785 29.7746 21.2302Z" stroke="black"/>
<path d="M19.2359 13.4319L18.7697 13.8095L19.2251 14.2L26.8388 20.7293L26.8398 20.7301C26.9599 20.8326 26.9642 20.9848 26.8526 21.0932C26.7789 21.1613 26.6802 21.1996 26.5678 21.1996C26.4603 21.1996 26.3633 21.1635 26.2991 21.1078L26.2969 21.1058L18.5869 14.4896L18.2707 14.2183L17.9468 14.4804L15.7852 16.2301L15.7851 16.2301L15.7802 16.2342C15.7173 16.2865 15.6213 16.3215 15.5225 16.3215C15.4198 16.3215 15.3277 16.2899 15.2579 16.2344C15.2577 16.2343 15.2575 16.2341 15.2573 16.2339L13.1553 14.5379L12.834 14.2786L12.5186 14.5451L4.76631 21.0954C4.76599 21.0957 4.76567 21.096 4.76535 21.0962C4.69582 21.1538 4.60042 21.188 4.49639 21.188C4.38965 21.188 4.28387 21.1477 4.20684 21.0774C4.09643 20.9668 4.10084 20.8186 4.22372 20.7133C4.22393 20.7131 4.22415 20.7129 4.22436 20.7128L11.8621 14.2544L12.3241 13.8637L11.8533 13.4836L4.18187 7.29031L4.18167 7.29015C4.04684 7.18142 4.04571 7.03265 4.15282 6.9243C4.29059 6.78493 4.5461 6.76748 4.7083 6.89813C4.70836 6.89818 4.70842 6.89822 4.70848 6.89827L13.0081 13.6068L13.0245 13.6201L13.0419 13.6319C13.0623 13.6457 13.0799 13.6586 13.0964 13.6718C13.1083 13.6851 13.1185 13.6952 13.1247 13.7011C13.1325 13.7087 13.1398 13.7152 13.141 13.7163L13.1412 13.7165L13.1515 13.7258L13.1624 13.7346L15.2021 15.3799L15.5168 15.6338L15.8309 15.3792L26.2851 6.90406C26.2853 6.90391 26.2855 6.90375 26.2857 6.90359C26.4478 6.77343 26.704 6.79024 26.8424 6.92592C26.9486 7.03486 26.946 7.1846 26.8159 7.29212C26.8156 7.29239 26.8153 7.29266 26.8149 7.29293L19.2359 13.4319Z" stroke="black"/>
</g>
<defs>
<clipPath id="clip0">
<rect width="31" height="28" fill="white"/>
</clipPath>
</defs>
</svg>
