<svg width="95" height="95" viewBox="0 0 95 95" fill="none" xmlns="http://www.w3.org/2000/svg">
<path d="M92.15 54.72C92.15 54.72 72.7225 75.0025 48.7825 75.0025C24.8425 75.0025 5.41498 54.72 5.41498 54.72C5.41498 54.72 24.8425 34.39 48.7825 34.39C72.7225 34.39 92.15 54.72 92.15 54.72Z" stroke="black" stroke-width="2" stroke-miterlimit="10" stroke-linejoin="round"/>
<path d="M63.5075 36.955C66.2625 40.28 67.925 44.555 67.925 49.21C67.925 59.8025 59.3275 68.3525 48.7825 68.3525C38.2375 68.3525 29.64 59.755 29.64 49.21C29.64 44.555 31.3025 40.28 34.0575 36.955" stroke="black" stroke-width="2" stroke-miterlimit="10" stroke-linejoin="round"/>
<path d="M43.51 57.0475C47.1564 57.0475 50.1125 54.0915 50.1125 50.445C50.1125 46.7986 47.1564 43.8425 43.51 43.8425C39.8635 43.8425 36.9075 46.7986 36.9075 50.445C36.9075 54.0915 39.8635 57.0475 43.51 57.0475Z" stroke="black" stroke-width="2" stroke-miterlimit="10" stroke-linejoin="round"/>
<path d="M5.41498 40.2801C5.41498 40.2801 24.8425 19.9976 48.7825 19.9976C72.7225 19.9976 92.15 40.2801 92.15 40.2801" stroke="black" stroke-width="2" stroke-miterlimit="10" stroke-linejoin="round"/>
</svg>
