<svg width="42" height="42" viewBox="0 0 42 42" fill="none" xmlns="http://www.w3.org/2000/svg">
<g clip-path="url(#clip0)">
<rect width="42" height="42" fill="white"/>
<path d="M15.5668 24.71V24.21H15.0668L11.1428 24.21C10.2955 24.21 9.60544 23.5197 9.60544 22.6727L9.60544 16.172C9.60544 15.3247 10.2955 14.6347 11.1428 14.6347L15.0668 14.6347H15.5668V14.1347L15.5668 10.8794C15.5668 7.75755 16.5452 5.14496 18.3556 3.28736L18.3556 3.28735C20.1731 1.42238 22.7276 0.418058 25.7801 0.417969C25.7803 0.417969 25.7804 0.417969 25.7805 0.417969L30.9092 0.426299C30.9092 0.426299 30.9092 0.426299 30.9092 0.426299C31.7549 0.427773 32.4438 1.11791 32.4438 1.96362L32.4438 7.99933C32.4438 8.84678 31.754 9.53665 30.9072 9.53665H30.907L27.4535 9.53793C27.4535 9.53793 27.4534 9.53793 27.4533 9.53793C26.3706 9.53796 25.9083 9.74772 25.7005 9.98222L25.6994 9.98339C25.569 10.1315 25.4935 10.3327 25.446 10.5634C25.3968 10.8027 25.3677 11.1248 25.3677 11.5626L25.3677 14.1344V14.6344H25.8677L30.6476 14.6344C30.9261 14.6344 31.1901 14.7032 31.4118 14.8269C31.9007 15.1 32.2038 15.6163 32.2038 16.1721C32.2038 16.1722 32.2038 16.1723 32.2038 16.1723L32.2013 22.6728V22.673C32.2013 23.5195 31.5114 24.2097 30.664 24.2097L25.8677 24.2097H25.3677V24.7097L25.3677 39.8806C25.3677 40.7278 24.6774 41.418 23.83 41.418L17.1041 41.418C16.2568 41.418 15.5668 40.7279 15.5668 39.8806L15.5668 24.71ZM17.029 39.4557V39.9557H17.529L23.4052 39.9557L23.9052 39.9557L23.9052 39.4557L23.9052 23.6077C23.9052 23.1338 24.2916 22.7475 24.7654 22.7475L30.2391 22.7475H30.7389L30.7391 22.2477L30.7413 16.5971L30.7415 16.0969H30.2413L24.7651 16.0969C24.2915 16.0969 23.9052 15.7107 23.9052 15.2367L23.9052 11.5626C23.9052 10.6107 24.0101 9.68762 24.6038 9.01538L24.6039 9.01529C25.3216 8.20213 26.491 8.07571 27.4529 8.07571H27.4531L30.4818 8.07443L30.9816 8.07422V7.57443L30.9816 2.38788V1.8887L30.9056 1.88857V1.88852H30.9052V1.88857L30.4824 1.88788L25.7794 1.88019H25.7786C23.1256 1.88019 20.9244 2.7319 19.3871 4.31567C17.8514 5.89774 17.029 8.15776 17.029 10.8794L17.029 15.2367C17.029 15.7105 16.6426 16.0969 16.1691 16.0969L11.5677 16.0969H11.0677V16.5969L11.0677 22.2475V22.7475H11.5677L16.1691 22.7475C16.6427 22.7475 17.029 23.1336 17.029 23.6077L17.029 39.4557Z" stroke="black"/>
</g>
<defs>
<clipPath id="clip0">
<rect width="42" height="42" fill="white"/>
</clipPath>
</defs>
</svg>
