<svg width="39" height="39" viewBox="0 0 39 39" fill="none" xmlns="http://www.w3.org/2000/svg">
<g clip-path="url(#clip0)">
<rect width="39" height="39" fill="white"/>
<path d="M36.0397 28.2372V27.7372H36.0395L36.0395 10.7625C36.0395 6.46003 32.5397 2.96025 28.237 2.96025L10.7623 2.96025C6.45979 2.96025 2.96025 6.46006 2.96025 10.7625L2.96025 28.2372C2.96025 32.5399 6.45978 36.0398 10.7623 36.0395L28.2372 36.0395C32.5399 36.0395 36.0397 32.54 36.0397 28.2372ZM10.7623 0.5L28.237 0.5C33.8957 0.5 38.5 5.10436 38.4998 10.7625L38.4998 28.2372C38.4998 33.8954 33.8957 38.4998 28.237 38.4998L10.7623 38.4998C5.10412 38.4998 0.5 33.8957 0.5 28.2372L0.5 10.7625C0.5 5.10433 5.10413 0.5 10.7623 0.5Z" stroke="black"/>
<path d="M9.95062 19.5003C9.95062 14.2352 14.2348 9.95105 19.4999 9.95105C24.765 9.95105 29.0491 14.2352 29.0491 19.5003C29.0491 24.7651 24.765 29.0491 19.4999 29.0491C14.2348 29.0491 9.95062 24.7651 9.95062 19.5003ZM12.4109 19.5001C12.4109 23.4093 15.5907 26.5886 19.4999 26.5886C23.409 26.5886 26.5889 23.4093 26.5889 19.5001C26.5889 15.5907 23.4093 12.4111 19.4999 12.4111C15.5905 12.4111 12.4109 15.5907 12.4109 19.5001Z" stroke="black"/>
<path d="M28.5308 7.61439L28.5308 7.6144L28.5325 7.61266C28.9088 7.23475 29.4359 7.01709 29.9706 7.01709C30.5079 7.01709 31.0351 7.23497 31.4109 7.61258L31.4109 7.61258L31.4126 7.61431C31.7902 7.99008 32.0081 8.51725 32.0081 9.05461C32.0081 9.58899 31.7907 10.1166 31.4122 10.4953C31.0322 10.8733 30.506 11.0921 29.9706 11.0921C29.4368 11.0921 28.9088 10.8728 28.5317 10.4958C28.1521 10.1162 27.9331 9.58824 27.9331 9.05461C27.9331 8.51831 28.1523 7.99087 28.5308 7.61439Z" stroke="black"/>
</g>
<defs>
<clipPath id="clip0">
<rect width="39" height="39" fill="white"/>
</clipPath>
</defs>
</svg>
