<svg width="31" height="30" viewBox="0 0 31 30" fill="none" xmlns="http://www.w3.org/2000/svg">
<g clip-path="url(#clip0)">
<path d="M27.3661 28.0388L27.3917 28.0088C27.7572 27.5819 28.1679 27.1965 28.5737 26.8157C28.6055 26.7859 28.6372 26.7561 28.6688 26.7264L28.6714 26.724C28.9708 26.4465 29.2733 26.1598 29.5617 25.8686L29.5619 25.8684C30.1707 25.2544 30.4428 24.5927 30.4415 23.9704C30.4402 23.3494 30.1666 22.7008 29.5564 22.1102L25.6958 18.3742L25.6889 18.3675L25.689 18.3675C25.1147 17.7899 24.4543 17.5079 23.7825 17.5079C23.1099 17.5079 22.44 17.7907 21.8434 18.368L19.5438 20.5934L19.277 20.8516L18.9527 20.6709C18.7553 20.561 18.5499 20.4614 18.3423 20.361C18.0862 20.237 17.8277 20.1092 17.5918 19.9639C15.4457 18.6452 13.5048 16.9295 11.6579 14.7379L11.6529 14.7319L11.6529 14.7319C10.7172 13.5857 10.0723 12.6029 9.6181 11.586L9.46754 11.2489L9.74535 11.0058C10.3362 10.4888 10.8916 9.94541 11.4369 9.40529C11.4372 9.40499 11.4375 9.4047 11.4378 9.4044L11.7897 9.75963C11.9824 9.56693 12.1815 9.37422 12.3807 9.18152C13.0744 8.51015 13.447 7.73311 13.447 6.94364C13.447 6.15416 13.0808 5.37712 12.3807 4.70576L27.3661 28.0388ZM27.3661 28.0388C26.4221 29.0218 25.2761 29.5 23.8146 29.5C23.6835 29.5 23.557 29.4947 23.4126 29.4886L23.404 29.4882C21.1197 29.3442 19.0527 28.5083 17.4665 27.781C13.3301 25.8404 9.70673 23.0988 6.69551 19.6154C4.20749 16.7224 2.54568 14.0301 1.44617 11.142L1.4457 11.1408C0.731175 9.27867 0.470397 7.77733 0.584247 6.38892C0.676558 5.3253 1.11568 4.41132 1.90472 3.64774L4.3027 1.32711L27.3661 28.0388ZM27.398 28.0059C27.3991 28.0048 27.3993 28.0046 27.3981 28.0058L27.398 28.0059ZM1.15552 6.431L1.15549 6.431L1.15504 6.43642C1.04404 7.78589 1.3182 9.23803 1.99611 10.9898C3.08709 13.8388 4.73314 16.4856 7.15794 19.3103L7.15892 19.3115C10.1146 22.7338 13.6785 25.4312 17.7378 27.3322L17.7407 27.3335C19.2225 28.0161 21.252 28.8457 23.4561 28.9823L23.4586 28.9824C23.5666 28.9886 23.6956 28.9956 23.821 28.9956C25.084 28.9956 26.0978 28.5866 26.9377 27.7102L26.9467 27.7008L26.9552 27.691C27.3383 27.2472 27.7617 26.8494 28.1929 26.4443C28.2154 26.4231 28.2379 26.402 28.2605 26.3808C28.5626 26.1008 28.8523 25.827 29.131 25.5382C29.5767 25.0883 29.8615 24.5721 29.8661 24.0045C29.8708 23.4315 29.5891 22.9198 29.1405 22.4857L29.1402 22.4854L25.2733 18.7495C24.9834 18.4494 24.4655 18.0495 23.7825 18.0495C23.2166 18.0495 22.6938 18.3229 22.2592 18.7435L19.8568 21.0684C19.7592 21.1629 19.5506 21.3504 19.2474 21.3504C19.127 21.3504 18.9973 21.3222 18.8474 21.2475L18.8475 21.2475L18.8425 21.2451C18.8423 21.245 18.842 21.2448 18.8415 21.2445C18.8401 21.2438 18.837 21.2421 18.831 21.2388C18.8243 21.2351 18.8125 21.2285 18.7976 21.2207C18.5672 21.0804 18.316 20.9562 18.067 20.8357C18.0169 20.8109 17.9677 20.7867 17.9192 20.763C17.6857 20.6486 17.4709 20.5434 17.2658 20.4141L17.2658 20.4141L17.261 20.4111C15.0776 19.0693 13.0881 17.323 11.1917 15.0599C10.1457 13.7868 9.48804 12.7363 9.01703 11.6448C9.01189 11.6312 9.00749 11.6206 9.00524 11.6151L9.00469 11.6138C9.00445 11.6132 9.00424 11.6127 9.00406 11.6123C8.95066 11.4561 8.92613 11.3273 8.94147 11.2065C8.95528 11.0979 9.00747 10.9473 9.20186 10.7592L9.20187 10.7592L9.21792 10.7437L9.22318 10.7386C9.80196 10.2418 10.3307 9.72413 10.8722 9.19396C10.9173 9.14981 10.9625 9.10558 11.0078 9.06126C11.1084 8.96389 11.2088 8.86519 11.3075 8.76813L11.3084 8.7672C11.4082 8.66905 11.5064 8.57256 11.6043 8.47783C12.0548 8.04181 12.3604 7.5289 12.3604 6.95607C12.3604 6.38324 12.0548 5.87033 11.6043 5.43432L9.69256 3.58428C9.58057 3.47283 9.46879 3.36309 9.35917 3.25549L9.35618 3.25255C9.24436 3.14278 9.13486 3.03527 9.02717 2.928L9.02718 2.92799L9.02462 2.92547C8.96719 2.86907 8.91006 2.81285 8.85313 2.75683C8.48434 2.3939 8.12397 2.03926 7.74449 1.69896C7.31126 1.27574 6.79653 1.023 6.24619 1.023C5.69218 1.023 5.16444 1.27349 4.7229 1.68605L4.72285 1.68599L4.71655 1.69209L2.32699 4.00456C1.62509 4.68382 1.24376 5.48459 1.15552 6.431Z" stroke="black"/>
</g>
<defs>
<clipPath id="clip0">
<rect width="31" height="30" fill="white"/>
</clipPath>
</defs>
</svg>
