<svg width="41" height="40" viewBox="0 0 41 40" fill="none" xmlns="http://www.w3.org/2000/svg">
<g clip-path="url(#clip0)">
<rect width="41" height="40" fill="white"/>
<path d="M39.1706 5.32505L39.168 5.32597L1.5597 18.5852C1.55955 18.5853 1.55939 18.5854 1.55924 18.5854C0.981184 18.7906 0.585572 19.2819 0.512009 19.8627L39.1706 5.32505ZM39.1706 5.32505C39.5684 5.18237 40.0135 5.30293 40.2788 5.61799L39.1706 5.32505ZM1.19446 21.3296L1.19649 21.331L6.57236 24.9113L6.57242 24.9113C6.9418 25.1574 7.41778 25.1843 7.81458 24.9799L7.81473 24.9799L19.4761 18.9804L19.9992 19.8292L10.9108 26.4499C10.6107 26.6686 10.4347 27.0157 10.4347 27.3721L10.4347 33.5049C10.4347 33.9465 10.6826 34.3584 11.0954 34.5754C11.5096 34.7926 12.0096 34.7708 12.4023 34.5184C12.4025 34.5183 12.4026 34.5182 12.4028 34.5181L16.4859 31.8757L16.7614 31.6975L17.0345 31.8792L21.0509 34.551L21.0519 34.5517C21.3194 34.7306 21.6414 34.8265 21.968 34.8265C22.0775 34.8265 22.1877 34.8155 22.2962 34.7935L1.19446 21.3296ZM1.19446 21.3296C0.698899 21.0031 0.439286 20.4411 0.511993 19.8629L1.19446 21.3296ZM40.3561 6.71325L40.3574 6.71114C40.5722 6.36938 40.5429 5.93248 40.279 5.61824L40.3561 6.71325ZM40.3561 6.71325L23.3441 34.0811C23.3435 34.082 23.3429 34.0829 23.3423 34.0839M40.3561 6.71325L23.3423 34.0839M23.3423 34.0839C23.11 34.4447 22.7288 34.7054 22.2965 34.7935L23.3423 34.0839ZM21.6013 33.28L22.0306 33.5657L22.3029 33.1277L37.8096 8.18204L38.5609 6.97329L37.2187 7.44652L2.58581 19.6566L1.64176 19.9894L2.4749 20.5443L7.02183 23.5726L7.26642 23.7355L7.52773 23.601L26.809 13.6813L26.8091 13.6813C27.3761 13.3895 28.0508 13.5704 28.3865 14.0885C28.7178 14.6003 28.5976 15.2549 28.0923 15.6231C28.0923 15.6231 28.0923 15.6231 28.0923 15.6231L12.0439 27.314L11.8383 27.4638V27.7182L11.8383 32.3413L11.8383 33.2604L12.6099 32.7611L16.0968 30.5046L16.0969 30.5045C16.3 30.373 16.5315 30.3074 16.7629 30.3074C16.9996 30.3074 17.2362 30.3759 17.4415 30.5128L17.4419 30.513L21.6013 33.28Z" stroke="black"/>
</g>
<defs>
<clipPath id="clip0">
<rect width="41" height="40" fill="white"/>
</clipPath>
</defs>
</svg>
