<svg width="69" height="69" viewBox="0 0 69 69" fill="none" xmlns="http://www.w3.org/2000/svg">
<path d="M34.5 0C15.4767 0 0 15.4767 0 34.5C0 53.5233 15.4767 69 34.5 69C53.5233 69 69 53.5233 69 34.5C69 15.4767 53.5233 0 34.5 0ZM34.5 66.7C16.7451 66.7 2.3 52.2548 2.3 34.5C2.3 16.7451 16.7451 2.3 34.5 2.3C52.2548 2.3 66.7 16.7451 66.7 34.5C66.7 52.2548 52.2548 66.7 34.5 66.7Z" fill="black"/>
<path d="M34.5 6.90002C33.8652 6.90002 33.35 7.41407 33.35 8.05002V34.5H16.1C15.4652 34.5 14.95 35.0141 14.95 35.65C14.95 36.286 15.4652 36.8 16.1 36.8H34.5C35.1348 36.8 35.65 36.286 35.65 35.65V8.05002C35.65 7.41407 35.1348 6.90002 34.5 6.90002Z" fill="black"/>
</svg>
