<svg width="42" height="42" viewBox="0 0 42 42" fill="none" xmlns="http://www.w3.org/2000/svg">
<g clip-path="url(#clip0)">
<path d="M14.028 2.01091L14.028 2.01092C11.608 3.01336 9.44053 4.46234 7.58378 6.31908C3.83074 10.0721 1.76502 15.0597 1.76502 20.3675C1.76502 23.5322 2.52882 26.6778 3.9754 29.4794L4.0742 29.6707L4.00306 29.874L0.579577 39.6541C0.401624 40.1629 0.526605 40.7111 0.907739 41.092L0.908005 41.0923C1.17576 41.3602 1.52458 41.5 1.88186 41.5C2.03548 41.5 2.19176 41.4742 2.34569 41.4204C2.34571 41.4204 2.34574 41.4204 2.34576 41.4204L12.126 37.9972L12.3292 37.9261L12.5206 38.0249C15.3222 39.4714 18.4677 40.2352 21.6325 40.2352C26.9402 40.2352 31.9275 38.1692 35.6809 34.4161C39.4339 30.6631 41.4999 25.6755 41.4999 20.3678C41.4999 15.0597 39.4342 10.0721 35.6809 6.3191L36.0344 5.96553L35.6809 6.31908C31.9275 2.56571 26.9408 0.5 21.6325 0.5H21.6325H21.6324H21.6324H21.6324H21.6324H21.6324H21.6324H21.6323H21.6323H21.6323H21.6323H21.6323H21.6323H21.6322H21.6322H21.6322H21.6322H21.6322H21.6322H21.6321H21.6321H21.6321H21.6321H21.6321H21.6321H21.6321H21.632H21.632H21.632H21.632H21.632H21.632H21.6319H21.6319H21.6319H21.6319H21.6319H21.6318H21.6318H21.6318H21.6318H21.6318H21.6318H21.6317H21.6317H21.6317H21.6317H21.6317H21.6317H21.6316H21.6316H21.6316H21.6316H21.6316H21.6315H21.6315H21.6315H21.6315H21.6315H21.6315H21.6314H21.6314H21.6314H21.6314H21.6314H21.6314H21.6313H21.6313H21.6313H21.6313H21.6313H21.6313H21.6312H21.6312H21.6312H21.6312H21.6312H21.6311H21.6311H21.6311H21.6311H21.6311H21.6311H21.631H21.631H21.631H21.631H21.631H21.631H21.6309H21.6309H21.6309H21.6309H21.6309H21.6309H21.6308H21.6308H21.6308H21.6308H21.6308H21.6308H21.6307H21.6307H21.6307H21.6307H21.6307H21.6307H21.6306H21.6306H21.6306L14.028 2.01091ZM14.028 2.01091C16.4476 1.00848 19.0051 0.50032 21.6306 0.5L14.028 2.01091ZM12.9926 36.62C15.6383 38.0282 18.6253 38.7717 21.6325 38.7717C26.5472 38.7717 31.1707 36.8571 34.6461 33.3814C38.1217 29.9061 40.0368 25.2825 40.0368 20.3675C40.0368 15.4524 38.1217 10.8292 34.6461 7.35384C31.1708 3.87821 26.5476 1.96318 21.6325 1.96318H21.6309H21.6308C16.7164 1.96384 12.0935 3.87887 8.61856 7.35386C5.14324 10.8292 3.2282 15.4527 3.2282 20.3675C3.2282 23.3749 3.97204 26.362 5.37991 29.0071C5.56278 29.3509 5.59385 29.7574 5.46695 30.1204C5.46694 30.1204 5.46692 30.1205 5.46691 30.1205L2.35681 39.006L2.01374 39.9862L2.99391 39.6431L11.8796 36.5333L11.8796 36.5333C12.2419 36.4064 12.6484 36.4372 12.9926 36.62ZM12.9926 36.62L13.2275 36.1787M12.9926 36.62C12.9926 36.6201 12.9927 36.6201 12.9928 36.6202L13.2275 36.1787M13.2275 36.1787C15.8006 37.5482 18.7069 38.2717 21.6325 38.2717C26.4146 38.2717 30.911 36.4097 34.2925 33.0278L13.2275 36.1787Z" stroke="black"/>
<path d="M11.7254 18.1745C10.5983 15.5446 10.7569 13.6396 11.7972 12.5993L14.0063 10.3902C14.748 9.64853 15.956 9.64853 16.6977 10.3902L19.4592 13.1517L19.4593 13.1518C20.2012 13.8935 20.2012 15.1014 19.4593 15.8431L19.4592 15.8431L18.4345 16.8679L18.17 17.1323L18.349 17.4607C19.7818 20.0897 21.9103 22.2182 24.5393 23.6507L24.8677 23.8296L25.1321 23.5652L26.1568 22.5405C26.8985 21.7988 28.1066 21.7988 28.8482 22.5404C28.8483 22.5404 28.8483 22.5405 28.8483 22.5405L31.6097 25.3023L31.6099 25.3024C31.97 25.6623 32.1673 26.1384 32.1673 26.648C32.1673 27.1472 31.9777 27.6147 31.6308 27.9724L31.6097 27.9934L29.4007 30.2028C28.8492 30.7543 28.0717 31.0535 27.0671 31.0535C26.1515 31.0535 25.0595 30.8034 23.8255 30.2746C21.5672 29.3067 19.0563 27.5207 16.7678 25.2322C14.4793 22.9437 12.6933 20.4328 11.7254 18.1745ZM11.7254 18.1745L11.2658 18.3715M11.7254 18.1745L11.2658 18.3715M11.2658 18.3715C12.2649 20.7027 14.0933 23.2648 16.4142 25.5858C18.7351 27.9067 21.2973 29.7351 23.6285 30.7342L29.2018 22.1869C28.2649 21.25 26.7402 21.25 25.8033 22.1869L24.7785 23.2117C22.234 21.8251 20.1749 19.766 18.788 17.2214L19.8128 16.1967C20.75 15.2597 20.75 13.7351 19.8128 12.7982L17.0513 10.0367C16.1143 9.09972 14.5897 9.09972 13.6527 10.0367L11.4437 12.2457C10.1783 13.5111 10.1151 15.6866 11.2658 18.3715ZM24.4021 28.9299L24.4022 28.9299C25.4091 29.3613 26.232 29.5583 26.8744 29.5892C27.4936 29.6189 28.0374 29.4965 28.3659 29.168L30.5327 27.0016L30.8863 26.648L30.5327 26.2944L27.8561 23.6178L27.5026 23.2643L27.149 23.6178L25.8663 24.9005L25.8662 24.9006C25.4391 25.328 24.7939 25.43 24.2578 25.1567C21.0449 23.5181 18.4818 20.9551 16.8433 17.7422L16.8433 17.7421C16.5701 17.2065 16.6722 16.5613 17.0994 16.134L17.0995 16.134L18.3822 14.8509L18.7356 14.4974L18.3822 14.1439L15.7059 11.4673L15.3523 11.1137L14.9988 11.4673L12.832 13.6341C12.5034 13.9626 12.381 14.5065 12.4109 15.1258C12.4418 15.7683 12.6388 16.5913 13.0704 17.5982C13.981 19.7228 15.6672 22.062 17.8026 24.1974C19.938 26.3328 22.2775 28.0193 24.4021 28.9299Z" stroke="black"/>
</g>
<defs>
<clipPath id="clip0">
<rect width="42" height="42" fill="white"/>
</clipPath>
</defs>
</svg>
